<svg width="24" height="24" viewBox="0 0 24 24" fill="none" xmlns="http://www.w3.org/2000/svg">
<path fill-rule="evenodd" clip-rule="evenodd" d="M10.4914 9.31653C10.8586 9.11672 11.1834 8.99952 11.662 8.93996C13.3476 8.73246 14.8756 9.97554 15.0697 11.6509C15.2773 13.4646 13.9338 14.8844 12.3577 15.0651C10.5472 15.2726 9.12489 13.9296 8.9423 12.3579C8.79622 11.0918 9.46317 9.87371 10.4914 9.31653ZM4.41785 13.4435V10.5615C4.41804 10.4647 4.41806 10.366 4.41808 10.2661C4.41827 9.35686 4.41849 8.33525 4.54663 7.48361C4.73691 6.18866 5.41923 5.18574 6.63971 4.75345C7.06064 4.60359 7.49501 4.52482 7.97168 4.48639C9.37668 4.37303 14.0606 4.39993 15.5041 4.45757C16.5497 4.49984 17.4915 4.65547 18.1834 5.17422C18.5005 5.41054 18.7946 5.72755 18.9964 6.06954C19.6152 7.1153 19.6046 8.76591 19.596 10.0996C19.595 10.2655 19.5939 10.4264 19.5942 10.5807V13.0976C19.5939 13.289 19.5958 13.4904 19.5977 13.6988C19.611 15.1314 19.6273 16.8935 18.983 17.9585C18.2372 19.1901 16.9802 19.4879 15.4849 19.5474C13.88 19.6128 10.1109 19.6108 8.50792 19.5474C7.46234 19.5071 6.52247 19.3495 5.83054 18.8308C5.21934 18.3716 4.76958 17.728 4.57161 16.6866C4.41708 15.8777 4.41769 14.7801 4.41821 13.8607C4.41829 13.7166 4.41837 13.577 4.41785 13.4435ZM9.77069 7.80831C10.3165 7.51628 10.9008 7.33183 11.6062 7.26843C12.3135 7.20695 13.067 7.31646 13.6686 7.55086C14.2298 7.76797 14.8026 8.10804 15.1447 8.4385C15.6079 8.88616 15.8635 9.14169 16.1979 9.76803C16.4786 10.2925 16.6784 10.9074 16.738 11.5913C16.9744 14.3426 14.8833 16.5252 12.4135 16.7347C9.65729 16.9671 7.48348 14.8883 7.26822 12.4117C7.1798 11.3954 7.43159 10.356 7.94092 9.53364C8.08508 9.30116 8.2792 9.02641 8.43873 8.85926C8.87118 8.40776 9.18832 8.11956 9.77069 7.80831ZM15.8424 7.18773C15.7655 6.53065 16.2518 6.02727 16.8245 5.95811C17.4742 5.87933 17.9873 6.3731 18.0508 6.93797C18.1257 7.59313 17.6337 8.09843 17.0705 8.16568C16.419 8.24253 15.9077 7.7526 15.8424 7.18773ZM9.69488 2.75771C9.85065 2.75587 10.0067 2.75404 10.1628 2.75146C11.6754 2.72648 13.2419 2.73033 14.7564 2.76491C16.3171 2.79757 17.4088 2.86674 18.6485 3.50077C19.6057 3.9907 20.4283 4.96672 20.7973 5.98308C21.2424 7.2106 21.2531 8.52392 21.2643 9.89873C21.2649 9.97856 21.2656 10.0586 21.2663 10.1388C21.2798 11.6682 21.2875 13.2206 21.2529 14.75C21.2221 16.1698 21.1414 17.5454 20.5167 18.6444C20.1842 19.2266 19.8479 19.6301 19.3232 20.0643L18.8157 20.4216C17.4613 21.2373 15.7903 21.2492 14.1644 21.2609C14.0669 21.2616 13.9695 21.2623 13.8723 21.2632C12.3424 21.2766 10.7874 21.2843 9.25943 21.2516C7.70644 21.219 6.59935 21.1517 5.35964 20.5119C5.08095 20.3659 4.562 19.997 4.36019 19.7626C4.30502 19.6978 4.2694 19.6666 4.23405 19.6355C4.19183 19.5985 4.15001 19.5617 4.07573 19.4687C4.01929 19.3984 3.97343 19.3439 3.93284 19.2957C3.81585 19.1567 3.74258 19.0697 3.58561 18.8058C2.77408 17.4362 2.76183 15.7755 2.74979 14.1418C2.74911 14.0498 2.74843 13.9579 2.74761 13.8662C2.73416 12.3368 2.72647 10.7825 2.76107 9.25505C2.79566 7.67958 2.84756 6.62287 3.50105 5.36442C3.8028 4.78035 4.36211 4.17514 4.858 3.8197C4.97139 3.73709 5.06942 3.66792 5.20396 3.58915C6.54643 2.79481 8.10727 2.77642 9.69488 2.75771ZM5 0C2.23858 0 0 2.23858 0 5V19C0 21.7614 2.23858 24 5 24H19C21.7614 24 24 21.7614 24 19V5C24 2.23858 21.7614 0 19 0H5Z" fill="white"/>
</svg>
