<svg width="24" height="24" viewBox="0 0 24 24" fill="none" xmlns="http://www.w3.org/2000/svg">
<path fill-rule="evenodd" clip-rule="evenodd" d="M0 11.4999C0 13.3832 0.075561 14.4386 0.728133 16.1978C1.31201 17.7775 2.21187 19.0813 3.28347 20.3024C3.64066 20.7094 4.59548 21.4889 5.06945 21.8201C5.59838 22.1926 6.23034 22.5858 6.81422 22.8617C6.96534 22.9307 7.07525 22.9583 7.21263 23.0342C7.21263 20.4955 7.34315 20.5714 7.89268 18.2328L8.9368 13.7557C8.9368 13.6246 8.84063 13.4452 8.78568 13.2728C8.61395 12.6933 8.52465 12.0724 8.58647 11.4861C8.67577 10.741 8.84063 9.99597 9.35582 9.46479C9.87787 8.9198 10.3862 8.58867 11.2654 8.76804C11.6364 8.84392 11.9111 9.02328 12.1172 9.30612C12.7767 10.2098 12.337 11.6102 12.0554 12.5346C11.6639 13.8109 10.9976 15.2596 11.6433 16.246C12.4126 17.4188 14.178 17.2808 15.174 16.3426C15.6274 15.9218 15.9434 15.4596 16.2525 14.887C17.0493 13.4039 17.4958 10.3961 16.7539 8.72664C16.4448 8.02989 16.2319 7.80914 15.7441 7.31245C14.3703 5.91894 11.6226 5.78097 9.76797 6.50532C9.28026 6.69848 8.82002 6.94682 8.41474 7.26416C7.71408 7.81604 7.22637 8.38862 6.81422 9.22334C6.20287 10.4444 5.96244 12.2035 6.56006 13.528C7.08899 14.7077 7.41184 13.8454 7.01343 15.4734C6.80735 16.3219 6.53945 16.3909 5.45413 15.57C4.49931 14.8387 3.90856 13.1969 3.90856 11.8448C3.90856 9.8787 4.42375 8.4507 5.5709 7.0434C6.18913 6.28456 6.85544 5.73958 7.69348 5.24289C8.55899 4.7255 9.56876 4.39437 10.5785 4.20811C12.7561 3.81489 15.0229 4.13222 16.9119 5.30497C18.6704 6.39494 20.0374 8.60247 20.0374 10.7548C20.0374 13.9902 18.8696 17.4533 15.7854 18.695C14.2535 19.309 11.9936 19.3504 10.9014 17.9638C10.7983 17.8327 10.7365 17.7223 10.606 17.6395C10.5991 17.9086 9.90535 20.4542 9.82292 20.7853C9.42451 22.3512 8.67577 23.2136 8.60021 23.5378C10.4755 23.9793 10.5648 24 12.5156 24C14.1093 24 16.0189 23.4136 17.118 22.8824C18.2377 22.3444 18.7735 21.9511 19.7283 21.2061L21.789 18.9779C22.9774 17.2877 24.0009 14.8043 24.0009 12.5139C24.0009 10.3202 23.788 8.71975 22.8675 6.87784C22.2287 5.60161 22.0569 5.36016 21.1983 4.26329L20.5114 3.50446C20.0443 3.03535 19.4879 2.60765 18.9658 2.20753C17.3309 0.972693 14.597 0 12.5088 0C10.3038 0 8.76507 0.206956 6.87604 1.11756C6.53945 1.28313 6.27156 1.4349 5.96931 1.60046C5.26179 1.97988 4.06655 2.91808 3.51015 3.47686C2.52786 4.49095 1.78599 5.58781 1.14715 6.85714C0.597618 7.96781 0 9.8718 0 11.4999Z" fill="white"/>
</svg>
