<svg width="24" height="24" viewBox="0 0 24 24" fill="none" xmlns="http://www.w3.org/2000/svg">
<path fill-rule="evenodd" clip-rule="evenodd" d="M11.9645 -5.22983e-07L11.9707 -5.23257e-07C18.5693 -8.11688e-07 23.9352 5.38348 23.9352 12C23.9352 18.6164 18.5693 24 11.9707 24C9.53667 24 7.27931 23.274 5.38715 22.0169L0.786962 23.4912L2.27823 19.0336C0.843589 17.0582 6.39281e-07 14.625 5.24538e-07 12C2.35249e-07 5.38188 5.36588 -2.3455e-07 11.9645 -5.22983e-07ZM16.5859 18.6397C17.4997 18.4414 18.6456 17.7637 18.9344 16.9459C19.2231 16.1271 19.2231 15.4294 19.1393 15.2812C19.0718 15.1635 18.912 15.0863 18.6736 14.9712C18.6112 14.9411 18.5435 14.9084 18.4706 14.8717C18.119 14.6962 16.4091 13.8486 16.086 13.7361C15.7689 13.6161 15.4667 13.6582 15.2274 13.9973C15.1833 14.0592 15.1393 14.1212 15.0956 14.1829C14.8054 14.5921 14.525 14.9875 14.2922 15.2391C14.0815 15.4641 13.7375 15.4928 13.4488 15.3727C13.4173 15.3595 13.3812 15.3449 13.3408 15.3285C12.8836 15.1433 11.8699 14.7327 10.6422 13.6371C9.60709 12.713 8.90414 11.5628 8.70075 11.2177C8.50095 10.8717 8.67321 10.6686 8.83232 10.4811C8.8353 10.4776 8.83827 10.4741 8.84124 10.4706C8.94348 10.3438 9.04282 10.2381 9.14267 10.1318C9.21505 10.0548 9.2877 9.97745 9.36192 9.89159C9.3726 9.87926 9.383 9.86728 9.39313 9.8556C9.55045 9.67434 9.64383 9.56674 9.74938 9.34112C9.86895 9.10869 9.78394 8.8689 9.69862 8.69184C9.63956 8.5673 9.27465 7.67937 8.9628 6.92054C8.83104 6.59994 8.70876 6.30238 8.62301 6.09517C8.39093 5.53863 8.21458 5.51782 7.86308 5.50267C7.85498 5.50226 7.84681 5.50184 7.83858 5.50142C7.72511 5.49564 7.60013 5.48928 7.46198 5.48928C7.00419 5.48928 6.5269 5.624 6.23845 5.91977C6.22861 5.92984 6.21835 5.94028 6.20772 5.95111C5.83862 6.32709 5.01472 7.16632 5.01472 8.84005C5.01472 10.5173 6.2021 12.14 6.42052 12.4385C6.42638 12.4465 6.43154 12.4535 6.43597 12.4596C6.4491 12.4769 6.47382 12.5128 6.50977 12.5651C6.95658 13.2141 9.13906 16.3845 12.3944 17.7366C15.1436 18.8797 15.9603 18.773 16.5859 18.6397Z" fill="white"/>
</svg>
