<svg width="17" height="15" viewBox="0 0 17 15" fill="none" xmlns="http://www.w3.org/2000/svg">
<path fill-rule="evenodd" clip-rule="evenodd" d="M16.0205 7.49804V7.50196C16.0205 11.6372 12.6467 15 8.50022 15C4.35375 15 0.979895 11.6372 0.979895 7.50196C0.979895 5.97656 1.43489 4.56189 2.22269 3.37608L1.29875 0.493182L4.09229 1.42775C5.33024 0.52867 6.85511 0 8.50019 0C12.6477 0 16.0205 3.36275 16.0205 7.49804ZM4.33944 10.3941C4.46373 10.9668 4.88848 11.6849 5.40096 11.8659C5.91411 12.0468 6.35134 12.0468 6.44422 11.9943C6.51801 11.952 6.56637 11.8518 6.63848 11.7025C6.65735 11.6634 6.67786 11.6209 6.70087 11.5752C6.81082 11.3549 7.34201 10.2833 7.41254 10.0809C7.4877 9.88208 7.46133 9.69273 7.24884 9.54276C7.21005 9.51513 7.17117 9.48756 7.1325 9.46013C6.87606 9.27826 6.6283 9.10255 6.47059 8.95669C6.32962 8.82464 6.31161 8.60904 6.38689 8.42812C6.39514 8.40838 6.4043 8.38578 6.41456 8.36044C6.53063 8.07391 6.78798 7.4386 7.47459 6.66923C8.05368 6.02054 8.77453 5.58001 8.99076 5.45255C9.20764 5.32734 9.33487 5.43529 9.4524 5.53501C9.45459 5.53687 9.45679 5.53874 9.45898 5.5406C9.53847 5.60467 9.60472 5.66692 9.67131 5.7295C9.71959 5.77486 9.76804 5.82039 9.82184 5.8669C9.82957 5.87359 9.83708 5.88011 9.8444 5.88646C9.958 5.98505 10.0254 6.04357 10.1668 6.10972C10.3125 6.18466 10.4628 6.13138 10.5737 6.07791C10.6518 6.0409 11.2082 5.81222 11.6838 5.61679C11.8847 5.53421 12.0712 5.45757 12.201 5.40383C12.5498 5.25839 12.5629 5.14787 12.5723 4.92759C12.5726 4.92251 12.5729 4.91739 12.5731 4.91224C12.5768 4.84112 12.5807 4.7628 12.5807 4.67622C12.5807 4.38933 12.4963 4.09022 12.311 3.90945C12.3046 3.90328 12.2981 3.89685 12.2913 3.89019C12.0557 3.65887 11.5298 3.14255 10.4808 3.14255C9.4297 3.14255 8.4128 3.88667 8.22573 4.02355C8.22071 4.02722 8.21629 4.03046 8.21248 4.03323C8.20163 4.04146 8.17913 4.05695 8.14639 4.07948C7.73963 4.3595 5.75278 5.72724 4.90542 7.7673C4.18904 9.49026 4.25593 10.002 4.33944 10.3941Z" fill="white"/>
</svg>
