<svg width="71" height="71" viewBox="0 0 71 71" fill="none" xmlns="http://www.w3.org/2000/svg">
<path d="M8.88916 22.8287C17.863 20.1637 29.5772 22.9224 39.1826 30.8599C48.9383 38.9216 53.8574 50.1266 52.7306 59.5338" stroke="#FDDE42" stroke-width="2"/>
<path d="M29.885 64.4904C27.6289 57.27 29.6146 46.1904 35.7295 35.599C41.8263 25.0393 50.3954 17.7917 57.7617 16.1069" stroke="#FDDE42" stroke-width="2"/>
<path d="M33.849 5.91663C33.3153 11.6682 31.109 18.4298 27.2918 25.0413C21.5709 34.9503 13.749 41.8944 7.104 43.7401" stroke="#FDDE42" stroke-width="2"/>
<path d="M35.4998 65.0833C51.8383 65.0833 65.0832 51.8384 65.0832 35.5C65.0832 19.1615 51.8383 5.91663 35.4998 5.91663C19.1614 5.91663 5.9165 19.1615 5.9165 35.5C5.9165 51.8384 19.1614 65.0833 35.4998 65.0833Z" stroke="#FDDE42" stroke-width="2" stroke-linecap="square"/>
</svg>
