<svg width="71" height="71" viewBox="0 0 71 71" fill="none" xmlns="http://www.w3.org/2000/svg">
<path fill-rule="evenodd" clip-rule="evenodd" d="M35.4998 56.2083C46.9368 56.2083 56.2082 46.9369 56.2082 35.5C56.2082 24.0631 46.9368 14.7916 35.4998 14.7916C24.063 14.7916 14.7915 24.0631 14.7915 35.5C14.7915 46.9369 24.063 56.2083 35.4998 56.2083Z" stroke="#71D154" stroke-width="2" stroke-linecap="square"/>
<path d="M35.5 5.91663V23.6666" stroke="#71D154" stroke-width="2" stroke-linecap="square"/>
<path d="M35.5 47.3334V65.0834" stroke="#71D154" stroke-width="2" stroke-linecap="square"/>
<path d="M5.9165 35.5H23.6665" stroke="#71D154" stroke-width="2" stroke-linecap="square"/>
<path d="M47.3335 35.5H65.0835" stroke="#71D154" stroke-width="2" stroke-linecap="square"/>
<path d="M35.4998 38.4583C37.1337 38.4583 38.4582 37.1338 38.4582 35.5C38.4582 33.8661 37.1337 32.5416 35.4998 32.5416C33.866 32.5416 32.5415 33.8661 32.5415 35.5C32.5415 37.1338 33.866 38.4583 35.4998 38.4583Z" stroke="#71D154" stroke-width="2" stroke-linecap="square"/>
</svg>
