<svg width="71" height="71" viewBox="0 0 71 71" fill="none" xmlns="http://www.w3.org/2000/svg">
<path d="M14.8955 37.5857C14.8269 36.8998 14.7918 36.204 14.7918 35.5C14.7918 34.796 14.8269 34.1002 14.8955 33.4143L9.48389 27.3115L15.4006 17.0635L23.3916 18.6988C24.5167 17.8865 25.7267 17.1844 27.0057 16.6084L29.5835 8.875H41.4168L43.9946 16.6084C45.2736 17.1844 46.4836 17.8865 47.6087 18.6988L55.5997 17.0635L61.5164 27.3115L56.1047 33.4143C56.1733 34.1002 56.2085 34.796 56.2085 35.5C56.2085 36.204 56.1733 36.8998 56.1047 37.5857L61.5164 43.6885L55.5997 53.9365L47.6087 52.3012C46.4836 53.1135 45.2736 53.8156 43.9946 54.3915L41.4168 62.125H29.5835L27.0057 54.3915C25.7267 53.8156 24.5167 53.1135 23.3916 52.3012L15.4006 53.9365L9.48389 43.6885L14.8955 37.5857Z" stroke="#782AAC" stroke-width="2" stroke-linecap="square"/>
<path d="M35.4998 38.4583C37.1337 38.4583 38.4582 37.1338 38.4582 35.5C38.4582 33.8661 37.1337 32.5416 35.4998 32.5416C33.866 32.5416 32.5415 33.8661 32.5415 35.5C32.5415 37.1338 33.866 38.4583 35.4998 38.4583Z" stroke="#782AAC" stroke-width="2" stroke-linecap="square"/>
</svg>
