<svg width="71" height="71" viewBox="0 0 71 71" fill="none" xmlns="http://www.w3.org/2000/svg">
<path d="M23.6667 20.7083L25.8558 17.4245C26.3963 16.6145 27.1284 15.9503 27.9871 15.491C28.8458 15.0317 29.8047 14.7915 30.7785 14.7916H40.2215C41.1953 14.7915 42.1542 15.0317 43.0129 15.491C43.8716 15.9503 44.6037 16.6145 45.1442 17.4245L47.3333 20.7083H62.125V53.25H8.875V20.7083H23.6667Z" stroke="#F1493C" stroke-width="2" stroke-linecap="square"/>
<path d="M35.5 44.375C40.4015 44.375 44.375 40.4015 44.375 35.5C44.375 30.5985 40.4015 26.625 35.5 26.625C30.5985 26.625 26.625 30.5985 26.625 35.5C26.625 40.4015 30.5985 44.375 35.5 44.375Z" stroke="#F1493C" stroke-width="2" stroke-linecap="square"/>
</svg>
