<svg width="71" height="71" viewBox="0 0 71 71" fill="none" xmlns="http://www.w3.org/2000/svg">
<path d="M2.95801 53.25C2.95801 46.5937 11.833 46.5937 16.2705 42.1562C18.4893 39.9375 11.833 39.9375 11.833 28.8437C11.833 21.4487 14.7906 17.75 20.708 17.75C26.6254 17.75 29.583 21.4487 29.583 28.8437C29.583 39.9375 22.9268 39.9375 25.1455 42.1562C29.583 46.5937 38.458 46.5937 38.458 53.25M37.8421 46.5247C39.2983 45.997 40.4918 45.5089 41.4226 45.0606C43.0516 44.276 44.6233 43.3867 45.8538 42.1562C48.0726 39.9375 41.4163 39.9375 41.4163 28.8437C41.4163 21.4487 44.3739 17.75 50.2913 17.75C56.2088 17.75 59.1663 21.4487 59.1663 28.8437C59.1663 39.9375 52.5101 39.9375 54.7288 42.1562C59.1663 46.5937 68.0413 46.5937 68.0413 53.25" stroke="#F1493C" stroke-width="2" stroke-linecap="square"/>
<path d="M35.5 47.3333C36.5836 46.9675 37.3644 46.6979 37.8424 46.5247" stroke="#F1493C" stroke-width="2" stroke-linecap="round"/>
</svg>
