<svg xmlns="http://www.w3.org/2000/svg">
    <defs>
        <symbol viewBox="0 0 22 23" id="slider-arrow">
        <path d="M20.931 21.9575L2.53223 11.7532L21.2556 1.53198" stroke="currentColor" stroke-width="2"   stroke-miterlimit="10" fill="transparent"/>
        </symbol>


        <symbol viewBox="0 0 40 40" id="search">
            <circle cx="18.3575" cy="18.3575" r="8.50679" stroke="currentColor" fill="transparent" stroke-width="1.70136"/>
            <line x1="25.5155" y1="24.3123" x2="31.1179" y2="29.9146" stroke="currentColor" stroke-width="1.70136" stroke-linecap="round"/>
        </symbol>

        <symbol viewBox="0 0 40 40" fill="none" id="user">
        <circle cx="19.9406" cy="14.3517" r="5.50106" stroke="currentColor" stroke-width="1.70136"/>
        <path d="M12.8507 29.0969C12.8507 25.8082 15.5167 23.1422 18.8054 23.1422H21.0739C24.3626 23.1422 27.0287 25.8082 27.0287 29.0969V30.9684H12.8507V29.0969Z" stroke="currentColor" stroke-width="1.70136"/>
        </symbol>

        <symbol viewBox="0 0 13 24" fill="none" id="facebook">
        <path d="M0.387097 12.7824H3.01788V23.6129C3.01788 23.8267 3.19115 24 3.40498 24H7.86557C8.07941 24 8.25267 23.8267 8.25267 23.6129V12.8334H11.277C11.4736 12.8334 11.6391 12.6859 11.6615 12.4905L12.1209 8.50328C12.1335 8.39357 12.0987 8.28372 12.0253 8.20142C11.9518 8.11905 11.8467 8.0719 11.7364 8.0719H8.25282V5.57249C8.25282 4.81905 8.6585 4.43698 9.45871 4.43698C9.57275 4.43698 11.7364 4.43698 11.7364 4.43698C11.9502 4.43698 12.1235 4.26364 12.1235 4.04988V0.389961C12.1235 0.176129 11.9502 0.00286452 11.7364 0.00286452H8.59742C8.57528 0.00178065 8.52611 0 8.45365 0C7.90901 0 6.01587 0.106916 4.52044 1.48266C2.86351 3.0072 3.09383 4.83259 3.14888 5.14908V8.07182H0.387097C0.173264 8.07182 0 8.24508 0 8.45892V12.3952C0 12.6091 0.173264 12.7824 0.387097 12.7824Z" fill="currentColor"/>
        </symbol>

        <symbol viewBox="0 0 24 24" fill="none" id="instagram">
        <path fill-rule="evenodd" clip-rule="evenodd" d="M10.4914 9.31653C10.8586 9.11672 11.1834 8.99952 11.662 8.93996C13.3476 8.73246 14.8756 9.97554 15.0697 11.6509C15.2773 13.4646 13.9338 14.8844 12.3577 15.0651C10.5472 15.2726 9.12489 13.9296 8.9423 12.3579C8.79622 11.0918 9.46317 9.87371 10.4914 9.31653ZM4.41785 13.4435V10.5615C4.41804 10.4647 4.41806 10.366 4.41808 10.2661C4.41827 9.35686 4.41849 8.33525 4.54663 7.48361C4.73691 6.18866 5.41923 5.18574 6.63971 4.75345C7.06064 4.60359 7.49501 4.52482 7.97168 4.48639C9.37668 4.37303 14.0606 4.39993 15.5041 4.45757C16.5497 4.49984 17.4915 4.65547 18.1834 5.17422C18.5005 5.41054 18.7946 5.72755 18.9964 6.06954C19.6152 7.1153 19.6046 8.76591 19.596 10.0996C19.595 10.2655 19.5939 10.4264 19.5942 10.5807V13.0976C19.5939 13.289 19.5958 13.4904 19.5977 13.6988C19.611 15.1314 19.6273 16.8935 18.983 17.9585C18.2372 19.1901 16.9802 19.4879 15.4849 19.5474C13.88 19.6128 10.1109 19.6108 8.50792 19.5474C7.46234 19.5071 6.52247 19.3495 5.83054 18.8308C5.21934 18.3716 4.76958 17.728 4.57161 16.6866C4.41708 15.8777 4.41769 14.7801 4.41821 13.8607C4.41829 13.7166 4.41837 13.577 4.41785 13.4435ZM9.77069 7.80831C10.3165 7.51628 10.9008 7.33183 11.6062 7.26843C12.3135 7.20695 13.067 7.31646 13.6686 7.55086C14.2298 7.76797 14.8026 8.10804 15.1447 8.4385C15.6079 8.88616 15.8635 9.14169 16.1979 9.76803C16.4786 10.2925 16.6784 10.9074 16.738 11.5913C16.9744 14.3426 14.8833 16.5252 12.4135 16.7347C9.65729 16.9671 7.48348 14.8883 7.26822 12.4117C7.1798 11.3954 7.43159 10.356 7.94092 9.53364C8.08508 9.30116 8.2792 9.02641 8.43873 8.85926C8.87118 8.40776 9.18832 8.11956 9.77069 7.80831ZM15.8424 7.18773C15.7655 6.53065 16.2518 6.02727 16.8245 5.95811C17.4742 5.87933 17.9873 6.3731 18.0508 6.93797C18.1257 7.59313 17.6337 8.09843 17.0705 8.16568C16.419 8.24253 15.9077 7.7526 15.8424 7.18773ZM9.69488 2.75771C9.85065 2.75587 10.0067 2.75404 10.1628 2.75146C11.6754 2.72648 13.2419 2.73033 14.7564 2.76491C16.3171 2.79757 17.4088 2.86674 18.6485 3.50077C19.6057 3.9907 20.4283 4.96672 20.7973 5.98308C21.2424 7.2106 21.2531 8.52392 21.2643 9.89873C21.2649 9.97856 21.2656 10.0586 21.2663 10.1388C21.2798 11.6682 21.2875 13.2206 21.2529 14.75C21.2221 16.1698 21.1414 17.5454 20.5167 18.6444C20.1842 19.2266 19.8479 19.6301 19.3232 20.0643L18.8157 20.4216C17.4613 21.2373 15.7903 21.2492 14.1644 21.2609C14.0669 21.2616 13.9695 21.2623 13.8723 21.2632C12.3424 21.2766 10.7874 21.2843 9.25943 21.2516C7.70644 21.219 6.59935 21.1517 5.35964 20.5119C5.08095 20.3659 4.562 19.997 4.36019 19.7626C4.30502 19.6978 4.2694 19.6666 4.23405 19.6355C4.19183 19.5985 4.15001 19.5617 4.07573 19.4687C4.01929 19.3984 3.97343 19.3439 3.93284 19.2957C3.81585 19.1567 3.74258 19.0697 3.58561 18.8058C2.77408 17.4362 2.76183 15.7755 2.74979 14.1418C2.74911 14.0498 2.74843 13.9579 2.74761 13.8662C2.73416 12.3368 2.72647 10.7825 2.76107 9.25505C2.79566 7.67958 2.84756 6.62287 3.50105 5.36442C3.8028 4.78035 4.36211 4.17514 4.858 3.8197C4.97139 3.73709 5.06942 3.66792 5.20396 3.58915C6.54643 2.79481 8.10727 2.77642 9.69488 2.75771ZM5 0C2.23858 0 0 2.23858 0 5V19C0 21.7614 2.23858 24 5 24H19C21.7614 24 24 21.7614 24 19V5C24 2.23858 21.7614 0 19 0H5Z" fill="currentColor"/>
        </symbol>

        <symbol viewBox="0 0 24 24" fill="none" id="pinterest">
        <path fill-rule="evenodd" clip-rule="evenodd" d="M0 11.4999C0 13.3832 0.075561 14.4386 0.728133 16.1978C1.31201 17.7775 2.21187 19.0813 3.28347 20.3024C3.64066 20.7094 4.59548 21.4889 5.06945 21.8201C5.59838 22.1926 6.23034 22.5858 6.81422 22.8617C6.96534 22.9307 7.07525 22.9583 7.21263 23.0342C7.21263 20.4955 7.34315 20.5714 7.89268 18.2328L8.9368 13.7557C8.9368 13.6246 8.84063 13.4452 8.78568 13.2728C8.61395 12.6933 8.52465 12.0724 8.58647 11.4861C8.67577 10.741 8.84063 9.99597 9.35582 9.46479C9.87787 8.9198 10.3862 8.58867 11.2654 8.76804C11.6364 8.84392 11.9111 9.02328 12.1172 9.30612C12.7767 10.2098 12.337 11.6102 12.0554 12.5346C11.6639 13.8109 10.9976 15.2596 11.6433 16.246C12.4126 17.4188 14.178 17.2808 15.174 16.3426C15.6274 15.9218 15.9434 15.4596 16.2525 14.887C17.0493 13.4039 17.4958 10.3961 16.7539 8.72664C16.4448 8.02989 16.2319 7.80914 15.7441 7.31245C14.3703 5.91894 11.6226 5.78097 9.76797 6.50532C9.28026 6.69848 8.82002 6.94682 8.41474 7.26416C7.71408 7.81604 7.22637 8.38862 6.81422 9.22334C6.20287 10.4444 5.96244 12.2035 6.56006 13.528C7.08899 14.7077 7.41184 13.8454 7.01343 15.4734C6.80735 16.3219 6.53945 16.3909 5.45413 15.57C4.49931 14.8387 3.90856 13.1969 3.90856 11.8448C3.90856 9.8787 4.42375 8.4507 5.5709 7.0434C6.18913 6.28456 6.85544 5.73958 7.69348 5.24289C8.55899 4.7255 9.56876 4.39437 10.5785 4.20811C12.7561 3.81489 15.0229 4.13222 16.9119 5.30497C18.6704 6.39494 20.0374 8.60247 20.0374 10.7548C20.0374 13.9902 18.8696 17.4533 15.7854 18.695C14.2535 19.309 11.9936 19.3504 10.9014 17.9638C10.7983 17.8327 10.7365 17.7223 10.606 17.6395C10.5991 17.9086 9.90535 20.4542 9.82292 20.7853C9.42451 22.3512 8.67577 23.2136 8.60021 23.5378C10.4755 23.9793 10.5648 24 12.5156 24C14.1093 24 16.0189 23.4136 17.118 22.8824C18.2377 22.3444 18.7735 21.9511 19.7283 21.2061L21.789 18.9779C22.9774 17.2877 24.0009 14.8043 24.0009 12.5139C24.0009 10.3202 23.788 8.71975 22.8675 6.87784C22.2287 5.60161 22.0569 5.36016 21.1983 4.26329L20.5114 3.50446C20.0443 3.03535 19.4879 2.60765 18.9658 2.20753C17.3309 0.972693 14.597 0 12.5088 0C10.3038 0 8.76507 0.206956 6.87604 1.11756C6.53945 1.28313 6.27156 1.4349 5.96931 1.60046C5.26179 1.97988 4.06655 2.91808 3.51015 3.47686C2.52786 4.49095 1.78599 5.58781 1.14715 6.85714C0.597618 7.96781 0 9.8718 0 11.4999Z" fill="currentColor"/>
        </symbol>

        <symbol viewBox="0 0 24 24" fill="none" id="tel">
        <path fill-rule="evenodd" clip-rule="evenodd" d="M11.9645 -5.22983e-07L11.9707 -5.23257e-07C18.5693 -8.11688e-07 23.9352 5.38348 23.9352 12C23.9352 18.6164 18.5693 24 11.9707 24C9.53667 24 7.27931 23.274 5.38715 22.0169L0.786962 23.4912L2.27823 19.0336C0.843589 17.0582 6.39281e-07 14.625 5.24538e-07 12C2.35249e-07 5.38188 5.36588 -2.3455e-07 11.9645 -5.22983e-07ZM16.5859 18.6397C17.4997 18.4414 18.6456 17.7637 18.9344 16.9459C19.2231 16.1271 19.2231 15.4294 19.1393 15.2812C19.0718 15.1635 18.912 15.0863 18.6736 14.9712C18.6112 14.9411 18.5435 14.9084 18.4706 14.8717C18.119 14.6962 16.4091 13.8486 16.086 13.7361C15.7689 13.6161 15.4667 13.6582 15.2274 13.9973C15.1833 14.0592 15.1393 14.1212 15.0956 14.1829C14.8054 14.5921 14.525 14.9875 14.2922 15.2391C14.0815 15.4641 13.7375 15.4928 13.4488 15.3727C13.4173 15.3595 13.3812 15.3449 13.3408 15.3285C12.8836 15.1433 11.8699 14.7327 10.6422 13.6371C9.60709 12.713 8.90414 11.5628 8.70075 11.2177C8.50095 10.8717 8.67321 10.6686 8.83232 10.4811C8.8353 10.4776 8.83827 10.4741 8.84124 10.4706C8.94348 10.3438 9.04282 10.2381 9.14267 10.1318C9.21505 10.0548 9.2877 9.97745 9.36192 9.89159C9.3726 9.87926 9.383 9.86728 9.39313 9.8556C9.55045 9.67434 9.64383 9.56674 9.74938 9.34112C9.86895 9.10869 9.78394 8.8689 9.69862 8.69184C9.63956 8.5673 9.27465 7.67937 8.9628 6.92054C8.83104 6.59994 8.70876 6.30238 8.62301 6.09517C8.39093 5.53863 8.21458 5.51782 7.86308 5.50267C7.85498 5.50226 7.84681 5.50184 7.83858 5.50142C7.72511 5.49564 7.60013 5.48928 7.46198 5.48928C7.00419 5.48928 6.5269 5.624 6.23845 5.91977C6.22861 5.92984 6.21835 5.94028 6.20772 5.95111C5.83862 6.32709 5.01472 7.16632 5.01472 8.84005C5.01472 10.5173 6.2021 12.14 6.42052 12.4385C6.42638 12.4465 6.43154 12.4535 6.43597 12.4596C6.4491 12.4769 6.47382 12.5128 6.50977 12.5651C6.95658 13.2141 9.13906 16.3845 12.3944 17.7366C15.1436 18.8797 15.9603 18.773 16.5859 18.6397Z" fill="currentColor"/>
        </symbol>

        <symbol viewBox="0 0 46 25" fill="none" id="chevron">
        <path d="M1.5 1.83325L23 23.3333L44.5 1.83325" stroke="currentColor" stroke-width="2" stroke-linecap="square"/>
        </symbol>

        <symbol viewBox="0 0 48 48" fill="none" id="call-me">
        <path d="M24 48C37.2548 48 48 37.2548 48 24C48 10.7452 37.2548 0 24 0C10.7452 0 0 10.7452 0 24C0 37.2548 10.7452 48 24 48Z" fill="currentColor"/>
        <path fill-rule="evenodd" clip-rule="evenodd" d="M24.7911 37.3525H24.7852C22.3967 37.3517 20.0498 36.7524 17.9653 35.6154L10.4 37.6L12.4246 30.2048C11.1757 28.0405 10.5186 25.5855 10.5196 23.0702C10.5228 15.2017 16.9248 8.79999 24.7909 8.79999C28.6086 8.80164 32.1918 10.2879 34.8862 12.9854C37.5806 15.6828 39.0636 19.2683 39.0621 23.0815C39.059 30.9483 32.6595 37.3493 24.7911 37.3525ZM18.3159 33.0319L18.749 33.2889C20.5702 34.3697 22.6578 34.9415 24.7863 34.9423H24.7911C31.3288 34.9423 36.6499 29.6211 36.6525 23.0807C36.6538 19.9112 35.4212 16.9311 33.1817 14.689C30.9422 12.4469 27.964 11.2115 24.7957 11.2104C18.2529 11.2104 12.9318 16.5311 12.9292 23.0711C12.9283 25.3124 13.5554 27.4951 14.7427 29.3836L15.0248 29.8324L13.8265 34.2095L18.3159 33.0319ZM31.4924 26.154C31.7411 26.2742 31.9091 26.3554 31.9808 26.4751C32.0699 26.6238 32.0699 27.3378 31.7729 28.1708C31.4756 29.0038 30.051 29.764 29.3659 29.8663C28.7516 29.9582 27.9741 29.9965 27.1199 29.725C26.602 29.5607 25.9379 29.3413 25.0871 28.9739C21.7442 27.5304 19.485 24.2904 19.058 23.678C19.0281 23.6351 19.0072 23.6051 18.9955 23.5895L18.9927 23.5857C18.804 23.3339 17.5395 21.6468 17.5395 19.9008C17.5395 18.2582 18.3463 17.3973 18.7177 17.001C18.7432 16.9739 18.7666 16.9489 18.7875 16.926C19.1144 16.569 19.5007 16.4797 19.7384 16.4797C19.9761 16.4797 20.2141 16.4819 20.4219 16.4924C20.4475 16.4937 20.4742 16.4935 20.5017 16.4933C20.7095 16.4921 20.9686 16.4906 21.2242 17.1045C21.3225 17.3407 21.4664 17.691 21.6181 18.0604C21.9249 18.8074 22.264 19.6328 22.3236 19.7522C22.4128 19.9307 22.4722 20.1389 22.3533 20.3769C22.3355 20.4126 22.319 20.4463 22.3032 20.4785C22.2139 20.6608 22.1483 20.7948 21.9967 20.9718C21.9372 21.0413 21.8756 21.1163 21.814 21.1913C21.6913 21.3407 21.5687 21.4901 21.4619 21.5965C21.2833 21.7743 21.0975 21.9672 21.3055 22.3242C21.5135 22.6812 22.2292 23.8489 23.2892 24.7945C24.4288 25.8109 25.4192 26.2405 25.9212 26.4582C26.0192 26.5008 26.0986 26.5352 26.1569 26.5644C26.5133 26.7429 26.7213 26.713 26.9294 26.4751C27.1374 26.2371 27.8208 25.4338 28.0584 25.0769C28.2961 24.7201 28.5339 24.7795 28.8607 24.8984C29.1877 25.0176 30.9408 25.8801 31.2974 26.0586C31.367 26.0934 31.4321 26.1249 31.4924 26.154Z" fill="#FDFDFD"/>
        </symbol>

        <symbol  viewBox="0 0 12 7" fill="none" id="drop-down">
        <g clip-path="url(#clip0_2293_4640)">
        <line x1="-2.95875" y1="-3.56168" x2="7.71559" y2="9.02508" stroke="currentColor"/>
        <line x1="14.3033" y1="-2.8356" x2="3.32457" y2="9.48661" stroke="currentColor"/>
        </g>
        <defs>
        <clipPath id="clip0_2293_4640">
        <rect width="12" height="6" fill="none" transform="translate(0 0.491699)"/>
        </clipPath>
        </defs>
        </symbol>

        <symbol viewBox="0 0 71 71" fill="none" id="add">
        <path d="M50.2913 35.5H20.708M35.4997 50.2917V20.7084" stroke="currentColor" stroke-width="2" stroke-linecap="square"/>
        <path d="M35.5003 65.0833C51.8388 65.0833 65.0837 51.8384 65.0837 35.5C65.0837 19.1615 51.8388 5.91663 35.5003 5.91663C19.1619 5.91663 5.91699 19.1615 5.91699 35.5C5.91699 51.8384 19.1619 65.0833 35.5003 65.0833Z" stroke="currentColor" stroke-width="2" stroke-linecap="square"/>
        </symbol>

        <symbol viewBox="0 0 71 71" fill="none" id="aperture">
        <path d="M35.5003 65.0833C51.8386 65.0833 65.0837 51.8382 65.0837 35.5C65.0837 19.1615 51.8386 5.91663 35.5003 5.91663C19.1619 5.91663 5.91699 19.1615 5.91699 35.5C5.91699 51.8382 19.1619 65.0833 35.5003 65.0833Z" stroke="#782AAC" stroke-width="2" stroke-linecap="square"/>
        <path d="M8.875 47.3334H42.3527" stroke="currentColor" stroke-width="2" stroke-linecap="round"/>
        <path d="M11.9395 18.3588L28.6442 47.2923" stroke="currentColor" stroke-width="2" stroke-linecap="round"/>
        <path d="M38.5644 6.52539L21.8291 35.5119" stroke="currentColor" stroke-width="2" stroke-linecap="round"/>
        <path d="M32.4355 64.4746L49.1516 35.522" stroke="currentColor" stroke-width="2" stroke-linecap="round"/>
        <path d="M59.0609 52.6412L42.3301 23.6627" stroke="currentColor" stroke-width="2" stroke-linecap="round"/>
        <path d="M62.1246 23.6289H28.75" stroke="currentColor" stroke-width="2" stroke-linecap="round"/>
        </symbol>

        <symbol viewBox="0 0 71 71" fill="none" id="camera">
        <path d="M23.6667 20.7083L25.8558 17.4245C26.3963 16.6145 27.1284 15.9503 27.9871 15.491C28.8458 15.0317 29.8047 14.7915 30.7785 14.7916H40.2215C41.1953 14.7915 42.1542 15.0317 43.0129 15.491C43.8716 15.9503 44.6037 16.6145 45.1442 17.4245L47.3333 20.7083H62.125V53.25H8.875V20.7083H23.6667Z" stroke="currentColor" stroke-width="2" stroke-linecap="square"/>
        <path d="M35.5 44.375C40.4015 44.375 44.375 40.4015 44.375 35.5C44.375 30.5985 40.4015 26.625 35.5 26.625C30.5985 26.625 26.625 30.5985 26.625 35.5C26.625 40.4015 30.5985 44.375 35.5 44.375Z" stroke="currentColor" stroke-width="2" stroke-linecap="square"/>
        </symbol>

        <symbol viewBox="0 0 71 71" fill="none" id="heart">
        <path d="M35.5003 62.125L31.2107 58.2945C15.9753 44.7426 5.91699 35.8047 5.91699 24.8355C5.91699 15.8976 13.0762 8.875 22.1878 8.875C27.3353 8.875 32.2757 11.2255 35.5003 14.94C38.7249 11.2255 43.6653 8.875 48.8128 8.875C57.9245 8.875 65.0837 15.8976 65.0837 24.8355C65.0837 35.8047 55.0253 44.7426 39.7899 58.3235L35.5003 62.125Z" stroke="currentColor" stroke-width="2" stroke-linecap="square"/>
        </symbol>

        <symbol viewBox="0 0 71 71" fill="none" id="image">
        <path d="M62.125 8.875H8.875V62.125H62.125V8.875Z" stroke="currentColor" stroke-width="2" stroke-linecap="square"/>
        <path d="M8.875 41.4166L20.7083 29.5833L53.25 62.1249" stroke="currentColor" stroke-width="2" stroke-linecap="round"/>
        <path d="M39.9378 29.5834C44.0224 29.5834 47.3337 26.2722 47.3337 22.1876C47.3337 18.103 44.0224 14.7917 39.9378 14.7917C35.8532 14.7917 32.542 18.103 32.542 22.1876C32.542 26.2722 35.8532 29.5834 39.9378 29.5834Z" stroke="currentColor" stroke-width="2" stroke-linecap="square"/>
        <path d="M39.9375 48.8125L62.125 26.625" stroke="currentColor" stroke-width="2" stroke-linecap="round"/>
        </symbol>

        <symbol viewBox="0 0 71 71" fill="none" id="happy-smile">
        <path d="M21.5986 41.4202C23.8835 46.617 29.5478 50.2918 35.4984 50.2918C41.4236 50.2918 47.077 46.6075 49.3817 41.4331" stroke="currentColor" stroke-width="2" stroke-linecap="square"/>
        <circle cx="26.6247" cy="26.6249" r="1.47917" fill="currentColor"/>
        <circle cx="44.3747" cy="26.6249" r="1.47917" fill="currentColor"/>
        <path d="M35.5003 65.0834C51.8388 65.0834 65.0837 51.8385 65.0837 35.5001C65.0837 19.1617 51.8388 5.91675 35.5003 5.91675C19.1619 5.91675 5.91699 19.1617 5.91699 35.5001C5.91699 51.8385 19.1619 65.0834 35.5003 65.0834Z" stroke="currentColor" stroke-width="2" stroke-linecap="square"/>
        </symbol>

        <symbol viewBox="0 0 71 71" fill="none" id="people">
        <path d="M2.95801 53.25C2.95801 46.5937 11.833 46.5937 16.2705 42.1562C18.4893 39.9375 11.833 39.9375 11.833 28.8437C11.833 21.4487 14.7906 17.75 20.708 17.75C26.6254 17.75 29.583 21.4487 29.583 28.8437C29.583 39.9375 22.9268 39.9375 25.1455 42.1562C29.583 46.5937 38.458 46.5937 38.458 53.25M37.8421 46.5247C39.2983 45.997 40.4918 45.5089 41.4226 45.0606C43.0516 44.276 44.6233 43.3867 45.8538 42.1562C48.0726 39.9375 41.4163 39.9375 41.4163 28.8437C41.4163 21.4487 44.3739 17.75 50.2913 17.75C56.2088 17.75 59.1663 21.4487 59.1663 28.8437C59.1663 39.9375 52.5101 39.9375 54.7288 42.1562C59.1663 46.5937 68.0413 46.5937 68.0413 53.25" stroke="currentColor" stroke-width="2" stroke-linecap="square"/>
        <path d="M35.5 47.3333C36.5836 46.9675 37.3644 46.6979 37.8424 46.5247" stroke="currentColor" stroke-width="2" stroke-linecap="round"/>
        </symbol>

    </defs>
</svg>