<svg width="180" height="96" viewBox="0 0 180 96" fill="none" xmlns="http://www.w3.org/2000/svg">
<path d="M19.7286 2.38962C15.2635 5.52746 7.68654 13.4423 5.07067 17.7042C2.00378 22.6217 -0.431677 27.9607 0.0644362 28.4759C0.335044 28.71 0.966461 29.0378 1.46257 29.1784C2.31949 29.4594 2.68031 28.9442 4.52946 25.1975C8.81407 16.4396 15.3538 9.03997 23.3818 3.88829C24.5995 3.13895 25.5467 2.29595 25.5467 2.01494C25.5467 1.40611 24.0583 -0.0457268 23.472 0.00110676C23.2465 0.00110676 21.5777 1.07828 19.7286 2.38962Z" fill="white"/>
<path d="M23.2468 9.83623C20.2702 12.0375 13.3697 19.4839 11.4303 22.5749C8.27324 27.4925 6.60449 31.567 6.60449 34.1428V36.4845H8.18303C9.44586 36.4845 9.76157 36.2971 9.76157 35.5947C9.76157 34.1897 12.5579 28.1482 14.8581 24.4951C15.9856 22.7154 18.6015 19.5775 20.676 17.5637C22.7507 15.5031 25.2763 13.0209 26.3589 11.9437L28.2982 10.0236L27.2609 9.2274C25.8627 8.10339 25.5469 8.15023 23.2468 9.83623Z" fill="white"/>
<path d="M45.9322 11.1942C45.391 11.4283 44.7145 12.1776 44.3987 12.8333C44.038 13.6295 43.4517 14.0511 42.2791 14.2384C40.3397 14.5662 36.6413 15.9712 33.2588 17.704C30.1017 19.2496 23.0209 26.5555 20.8108 30.4427C18.6009 34.3299 18.8264 35.0793 21.0814 31.3326C23.5169 27.3049 24.4641 26.2745 26.1779 25.8999C26.9446 25.7593 28.4781 24.8227 29.6056 23.886C34.3863 19.9053 37.4983 18.3597 43.4517 17.0015C46.4283 16.3458 47.1951 16.018 47.6009 15.0814C48.052 14.0979 48.3226 14.0041 51.5699 14.0041C55.1329 14.0041 62.0785 15.5965 62.0785 16.3927C62.0785 16.6737 61.6726 17.704 61.1764 18.7344C60.5 20.0926 60.0038 20.5608 59.4626 20.3735C59.0567 20.233 57.4781 19.8115 55.9898 19.3432C54.5465 18.9217 53.0582 18.2661 52.6975 17.9382C51.9307 17.142 47.5559 17.0952 43.7674 17.7977C40.4299 18.4534 35.3786 20.4672 33.7549 21.7786C31.5449 23.6519 33.1235 23.5582 36.9119 21.5913C38.9866 20.5608 40.8358 19.8583 41.0613 20.0926C41.2417 20.2799 42.0536 20.2799 42.8203 20.0457C43.6321 19.8115 44.8949 19.6242 45.6616 19.6242C46.9245 19.6242 47.1049 19.7647 47.3755 21.357C47.5108 22.3405 47.6461 24.0265 47.6461 25.0569C47.6461 26.1341 47.7814 27.6796 47.9167 28.4758C48.1873 29.7402 48.4129 29.9275 49.6756 29.9275H51.1189L51.4797 25.2442C51.7503 21.1697 51.8855 20.5608 52.517 20.7483C52.9229 20.8419 54.5014 21.2165 55.9898 21.5443C57.4781 21.8722 58.8763 22.2468 59.0567 22.4343C59.4626 22.8089 57.433 27.3049 56.6663 27.8201C56.3957 28.0074 56.3055 28.2883 56.4409 28.5226C56.5761 28.7567 56.4409 29.4592 56.1251 30.1618C55.6289 31.3326 55.4937 31.3794 53.1935 31.0516C51.5699 30.8643 50.8031 30.9111 50.8031 31.2857C50.8031 31.5667 50.2168 31.8009 49.4501 31.8009C47.2852 31.8009 47.6461 32.7844 49.9913 33.3933C50.9836 33.6274 51.1189 33.5338 50.9385 32.7376C50.758 32.0819 50.9385 31.8009 51.4346 31.8009C51.8855 31.8009 52.1111 31.9883 51.9758 32.1756C51.8405 32.4097 52.3366 32.5035 53.0132 32.3629C53.7347 32.2692 54.4113 32.3629 54.5465 32.5971C54.6819 32.7844 53.8701 34.9387 52.7876 37.3741C51.7052 39.8094 50.8031 42.0575 50.8031 42.3852C50.8031 42.7131 51.2542 43.3219 51.7954 43.6966C52.9681 44.5865 58.9214 44.7269 60.3195 43.9776C60.7706 43.6966 61.7627 42.2916 62.4844 40.8397L63.7472 38.1702L64.4689 39.3411C64.8297 39.9499 65.5061 41.5891 65.9121 42.9005C66.3631 44.2587 66.8593 45.2421 67.1299 45.1017C67.3553 44.9611 68.0769 43.9776 68.7083 42.9005L69.881 40.9335L70.4673 42.3384C70.783 43.0878 71.0536 44.5396 71.0987 45.4763V47.2091L67.6259 47.3496C64.1983 47.4901 64.108 47.5369 63.9728 48.7078C63.7923 50.2533 64.6041 50.5343 69.2044 50.5343H72.4517V52.033C72.4517 53.2038 72.3165 53.3911 72.0008 52.876C71.6851 52.3608 71.4145 52.5949 70.8733 54.0468C68.8887 59.1516 67.3102 61.8211 64.8297 64.2097C60.3195 68.5651 59.8685 68.8462 56.08 69.8765C53.3739 70.6259 53.1484 70.5322 54.2308 69.0335C54.772 68.2842 55.0427 68.2374 55.7192 68.6589C56.4409 69.1272 56.6212 69.0804 56.8467 68.5183C56.9821 68.1437 57.2978 67.9096 57.5233 68.05C59.0567 69.0804 65.6866 63.273 67.8514 59.058C69.6104 55.686 69.6104 55.2177 68.122 55.2177C66.6337 55.2177 65.2355 54.4215 65.2355 53.5785C65.2355 52.4076 64.3335 52.7823 63.8825 54.1405C62.6197 57.7935 59.3725 61.9617 59.3725 59.901C59.3725 59.62 59.6881 59.4327 60.0489 59.4327C60.9961 59.4327 61.6275 57.8872 61.5373 55.8265C61.4921 54.0936 61.4921 54.0936 61.3118 55.5455C61.2215 56.3885 60.9509 57.091 60.6803 57.091C60.2744 57.091 60.1391 56.0139 60.2294 53.8127C60.2744 52.6887 60.2744 52.6887 59.6881 54.0468C58.9214 55.7796 55.2231 59.3391 54.9525 58.5897C54.8623 58.2618 54.5465 58.1682 54.2759 58.3555C53.8701 58.5897 50.3973 59.3859 50.3071 59.2453C50.3071 59.2453 50.2168 58.3086 50.0816 57.2315C49.8561 55.405 49.9011 55.3114 51.164 54.9835C53.1033 54.562 53.8701 53.5317 52.9681 52.5949C52.4269 51.9862 52.066 51.9393 51.3443 52.3608C50.0365 53.0633 49.9011 53.0165 49.8561 51.7989C49.811 51.0494 49.7207 51.19 49.4501 52.2671C49.2698 53.1101 48.8638 54.1405 48.5481 54.5152C48.1421 54.9835 48.1421 55.2177 48.503 55.2177C49.0442 55.2177 49.1795 58.3555 48.7285 59.62C48.5932 60.0415 48.0971 60.3694 47.6912 60.3694C47.0597 60.4162 47.1049 60.5098 47.8265 61.0719C48.6835 61.7275 48.6383 61.7743 47.15 61.8211C46.2931 61.8681 45.9773 61.9617 46.4283 62.1022C47.1951 62.3363 47.5108 63.1793 46.7891 63.1793C46.1577 63.1793 45.842 65.2401 46.4283 65.6615C47.4206 66.364 43.3615 65.4274 41.7379 64.5844C40.8809 64.116 39.4828 63.0857 38.6258 62.2895C37.6336 61.3529 36.9119 61.0251 36.5963 61.306C36.2806 61.587 35.8295 61.4465 35.3335 60.8376C34.0255 59.2453 31.9959 54.562 31.7704 52.5949C31.4998 50.6748 31.4998 50.628 33.1685 50.347C34.0706 50.2065 35.6943 50.0659 36.7316 50.0659C38.3102 50.0659 38.7611 49.8786 38.9415 49.1293C39.2121 48.099 39.9789 47.8648 39.9789 48.7546C39.9789 49.1761 40.1593 49.1293 40.4299 48.661C40.7907 48.0521 40.8809 48.099 40.8809 48.7546C40.8809 49.3635 41.2417 49.5976 42.1888 49.5976C43.1811 49.5976 43.5869 49.8786 44.038 50.9559C44.3086 51.7051 45.0302 52.7823 45.6616 53.3911L46.744 54.4215V53.3911C46.744 52.8292 46.2479 51.6583 45.6165 50.8153C44.9851 49.9254 44.5792 48.942 44.7145 48.6142C44.9851 47.8648 45.391 47.9116 36.1453 47.4901C32.447 47.3028 29.335 47.1155 29.2899 47.0686C29.2448 47.0218 29.3801 46.2256 29.5605 45.289C29.9213 43.6966 29.8762 43.5561 28.6585 42.9941C27.125 42.3384 27.1701 42.0106 29.1997 37.5615C30.0115 35.8285 31.5901 33.5806 33.1235 31.9883C35.1531 29.8807 35.4687 29.4124 34.5668 29.6466C33.9353 29.8339 32.6725 30.8175 31.7704 31.8478C30.1919 33.6274 30.1017 33.6743 29.6056 32.7844C28.433 30.4896 26.4937 32.4565 24.419 38.0766C23.9679 39.2475 23.4718 40.0905 23.2915 39.9967C22.9757 39.7626 22.2992 41.1676 21.7129 43.3687C21.307 44.8206 21.307 51.8925 21.7129 53.8595C21.8482 54.7493 22.4345 56.6695 22.9757 58.1213C23.9228 60.744 24.6445 61.587 24.6445 60.0883C24.6445 59.1516 25.5916 59.4795 26.1779 60.6503C27.3956 63.0389 29.786 66.4577 30.1919 66.4577C30.4625 66.4577 31.2743 65.8957 31.9959 65.1463C33.1685 64.0223 33.3039 63.9755 33.0333 64.8653C32.7176 65.8957 32.8078 65.9893 36.461 69.0335C37.8591 70.2043 40.6103 71.5157 44.038 72.546C45.8871 73.1549 47.5108 73.6701 47.5559 73.7637C47.6461 73.8106 47.6009 74.5131 47.4206 75.2623L47.15 76.6206L44.3537 76.0585C42.8203 75.7775 40.7456 75.1687 39.7984 74.7472C38.8063 74.2789 37.9493 74.0447 37.814 74.1852C37.4533 74.5131 37.6336 74.6068 41.2417 75.9649C47.3755 78.3066 56.7566 77.4636 62.3942 74.1384C65.0101 72.5928 63.9728 72.546 60.8607 74.0447C59.192 74.8877 56.486 75.7775 54.772 76.0585L51.7052 76.6206V75.075C51.7052 73.4359 52.4269 73.0144 53.419 74.0447C53.7799 74.4193 53.9602 74.4193 53.9602 74.0915C53.9602 73.8106 54.5014 73.4359 55.178 73.2485C55.8545 73.1081 57.2527 72.546 58.3351 72.0309C59.3725 71.5625 60.4097 71.1411 60.6352 71.1411C60.8607 71.1411 61.3569 70.8132 61.6726 70.3917C61.9882 69.9702 62.7099 69.4551 63.2511 69.2677C64.0629 68.9399 66.6788 66.0361 70.2869 61.3529C70.7379 60.8376 71.3693 60.3694 71.7302 60.3694C73.3989 60.3694 75.203 55.0771 75.5637 49.0356C75.6991 46.5534 75.9697 44.3991 76.15 44.2117C76.2854 44.0244 77.5481 44.1181 78.9464 44.446C81.7426 45.0547 85.3958 44.5396 87.8764 43.2282C91.5747 41.2613 92.7022 39.8562 95.9044 33.1122C97.6183 29.5529 99.3321 25.5252 99.7379 24.2607C100.46 22.0595 100.46 21.7786 99.7379 19.8583C98.836 17.3293 96.3554 15.8776 92.9277 15.8776C87.6959 15.8776 83.5016 18.2661 80.7503 22.9025C79.8483 24.4481 78.9464 25.6657 78.811 25.6189C78.6307 25.5252 77.5481 24.4012 76.3756 23.0898L74.2558 20.7013L75.6088 20.4204C76.7363 20.1862 77.1423 19.671 78.1345 17.4231C80.2091 12.5992 80.2091 12.6929 79.217 11.6625C78.4051 10.8195 77.6835 10.7258 71.9557 10.7258H65.5964L64.3786 12.084L63.1609 13.4422L59.1017 12.3181C54.6819 11.1005 47.5559 10.4448 45.9322 11.1942ZM77.8639 13.77C77.6384 14.3789 77.0069 15.7371 76.5109 16.8142C75.6088 18.6875 75.5637 18.6875 72.9478 18.6875H70.3319L69.1594 21.4975L67.9868 24.3076H70.2418C71.4596 24.3076 72.4517 24.4012 72.4517 24.5417C72.4517 24.6354 71.9105 25.8999 71.234 27.3517L70.0163 29.9275H67.7162H65.416L62.6197 36.1096L59.8685 42.3384L56.2153 42.4789C54.2308 42.5727 52.6072 42.4789 52.6072 42.2916C52.6072 42.1511 55.5839 35.4071 59.192 27.3049L65.8219 12.5992H72.0459H78.3149L77.8639 13.77ZM96.6711 18.6407C99.3772 20.3735 99.1517 21.9659 94.867 31.3794C90.9433 40.0437 87.9214 42.6663 81.6524 42.76C74.8873 42.8068 74.4362 40.4183 79.2621 29.9275C83.0505 21.7786 84.9899 19.4837 89.1392 18.1723C91.3942 17.4699 95.1827 17.704 96.6711 18.6407ZM76.2854 30.63C76.4206 31.1452 76.0599 32.7844 75.4736 34.2831L74.3911 36.9994L72.7223 34.4236L71.0987 31.8946L72.2714 29.2251L73.444 26.5555L74.7519 28.1479C75.4736 28.9909 76.15 30.1149 76.2854 30.63ZM23.7424 52.876C23.7424 53.1101 23.5621 53.3443 23.2915 53.3443C23.0659 53.3443 22.8404 53.1101 22.8404 52.876C22.8404 52.5949 23.0659 52.4076 23.2915 52.4076C23.5621 52.4076 23.7424 52.5949 23.7424 52.876ZM59.3725 56.6226C58.9665 57.372 59.0116 57.4656 59.5979 57.2783C60.9058 56.7631 60.2744 58.3555 58.6959 59.62C57.839 60.3225 57.1173 60.6503 57.1173 60.3694C57.1173 60.0883 57.433 59.7605 57.7939 59.62C58.1547 59.4327 58.3802 59.1516 58.2448 58.9175C58.1096 58.7302 57.6585 58.6834 57.2075 58.8238C56.7115 59.058 56.8918 58.5897 57.7939 57.4656C59.2822 55.5923 60.1391 55.1239 59.3725 56.6226ZM54.8171 66.8791C53.2387 68.7994 52.3366 69.3145 52.7876 68.0969C52.9229 67.7221 52.8327 67.3944 52.6072 67.3944C52.3366 67.3944 52.1563 67.5817 52.1563 67.8627C52.1563 68.7526 50.9836 68.331 50.9385 67.4412C50.8934 66.7387 51.2542 66.4577 52.7426 66.2236C53.7799 66.0361 54.9525 65.7083 55.3133 65.4742C56.4409 64.8185 56.3957 64.959 54.8171 66.8791ZM48.0971 67.3944C48.0971 67.9096 47.9167 68.331 47.6461 68.331C47.4206 68.331 47.1951 67.9096 47.1951 67.3944C47.1951 66.8791 47.4206 66.4577 47.6461 66.4577C47.9167 66.4577 48.0971 66.8791 48.0971 67.3944ZM40.2495 68.6589C39.9789 68.9399 38.6258 68.2374 38.6258 67.8159C38.6258 67.5817 39.0317 67.6285 39.5278 67.9564C39.9789 68.2842 40.3397 68.6121 40.2495 68.6589ZM43.136 69.9234C43.136 70.017 42.73 70.017 42.2339 69.8765C41.7379 69.736 41.3319 69.4551 41.3319 69.174C41.3319 68.9399 41.7379 68.9867 42.2339 69.2677C42.73 69.5487 43.136 69.8297 43.136 69.9234Z" fill="white"/>
<path d="M88.1023 26.0404C84.7648 32.9717 82.7803 37.8893 83.0509 38.3577C83.7275 39.5285 85.1256 37.4678 88.1474 30.677C91.4849 23.1836 91.8457 21.9659 90.7182 21.9659C90.3122 21.9659 89.2298 23.6519 88.1023 26.0404Z" fill="white"/>
<path d="M112.457 11.288C111.736 11.85 98.1602 41.5424 98.1602 42.5728C98.1602 42.8069 98.6562 43.369 99.2877 43.7904C100.19 44.3993 101.137 44.4929 104.339 44.2588C108.939 43.9309 108.624 43.9309 113.224 44.2588C117.463 44.5866 118.816 44.3056 119.403 42.9006C119.628 42.3385 120.395 38.4983 121.116 34.3301L122.38 26.8367L127.385 20.28C132.753 13.3955 133.34 11.9905 131.265 11.1943C129.641 10.5386 124.77 10.6323 123.417 11.3348C122.514 11.85 122.064 11.8031 121.162 11.3348C119.719 10.5386 113.449 10.5386 112.457 11.288ZM120.26 13.0676C120.26 13.3018 119.268 15.7372 118.05 18.4535C116.832 21.1698 115.885 23.371 115.975 23.371C116.065 23.371 117.509 21.5446 119.177 19.2497C124.274 12.412 124.004 12.5993 127.566 12.5993C129.234 12.5993 130.634 12.693 130.634 12.8335C130.634 13.0208 128.378 16.065 125.672 19.6243L120.665 26.1342L119.358 34.0022C118.591 38.3108 118.005 42.0107 118.005 42.1981C118.005 42.4322 116.291 42.5728 114.171 42.5728C112.051 42.5728 110.338 42.4322 110.338 42.1981C110.383 42.0107 110.969 39.2944 111.645 36.1097C112.367 32.9719 112.818 30.4897 112.683 30.5833C112.593 30.7238 111.33 33.3934 109.886 36.578L107.316 42.3385L103.617 42.479C101.453 42.5728 99.9642 42.4322 100.054 42.1981C100.099 41.9171 103.121 35.1731 106.729 27.1645L113.269 12.5993H116.787C118.681 12.5993 120.26 12.7866 120.26 13.0676Z" fill="white"/>
<path d="M165 11.0539C164.233 11.3349 161.302 17.4232 161.302 18.6878C161.302 19.3434 161.753 19.8586 162.654 20.28L164.008 20.8421L157.919 29.1316C150.206 39.5754 148.673 42.9944 151.199 43.9778C152.642 44.5866 164.052 44.5866 165.496 44.0247C166.758 43.5095 169.6 37.3743 169.194 35.9693C169.014 35.501 168.292 34.939 167.57 34.7048L166.217 34.3769L171.674 27.1178C176.501 20.7484 178.169 17.9853 179.838 13.6298C180.154 12.8336 180.018 12.3652 179.341 11.6627C178.53 10.8197 177.853 10.726 172.036 10.7729C168.473 10.7729 165.316 10.9134 165 11.0539ZM177.989 13.7702C176.861 16.8612 175.103 19.6244 169.058 27.5861L162.518 36.2502L165.09 36.3908C166.488 36.4845 167.616 36.625 167.616 36.7654C167.616 36.8591 166.984 38.2173 166.262 39.7628L164.909 42.5728H158.37C154.13 42.5728 151.83 42.3855 151.83 42.1044C151.83 40.7931 154.31 36.9528 160.715 28.3354L167.706 18.9219L165.36 18.7814C163.782 18.6878 163.105 18.4535 163.241 18.0789C163.376 17.751 163.918 16.3929 164.459 15.0347L165.496 12.5993H171.946H178.44L177.989 13.7702Z" fill="white"/>
<path d="M136.226 16.7206C135.323 17.3294 126.484 37.6551 126.258 39.6222C126.077 41.0272 126.213 41.9638 126.754 42.76C127.656 44.2587 130.542 45.1017 132.572 44.5396C133.338 44.3055 135.91 44.2119 138.165 44.3523C141.366 44.4928 142.584 44.3992 143.351 43.8841C144.028 43.4157 146.328 38.7792 149.981 30.6302C154.401 20.7951 155.483 17.9851 155.123 17.3763C154.716 16.6737 153.5 16.5801 145.696 16.4864C140.781 16.4396 136.496 16.5333 136.226 16.7206ZM143.081 20.6546C142.494 22.0128 140.555 26.3683 138.796 30.3492C136.992 34.2831 135.639 37.8426 135.774 38.2172C136.406 39.8564 137.985 37.3742 142.179 28.0543L146.598 18.2193H150.117H153.59L152.958 19.718C152.642 20.561 150.207 25.9936 147.591 31.801L142.81 42.3385L139.202 42.479C135.549 42.6195 135.549 42.6195 136.09 41.5892L136.586 40.5589L134.918 41.636C132.978 42.8536 129.821 43.1347 128.693 42.1512C128.242 41.8233 127.926 40.9335 127.926 40.1842C127.926 39.4348 130.001 34.1895 132.527 28.5226L137.127 18.2193H140.645H144.164L143.081 20.6546Z" fill="white"/>
<path d="M35.3334 33.2997C32.6725 36.016 30.0566 39.7626 30.0566 40.8399C30.0566 40.8867 30.5978 40.9803 31.2743 40.9335C32.2214 40.9335 32.7626 40.512 33.4392 39.2943C34.7021 37.0463 39.167 32.5503 40.8809 31.801C42.4595 31.1453 42.2339 30.6301 40.1142 30.1618C38.7611 29.8807 38.4455 30.115 35.3334 33.2997Z" fill="white"/>
<path d="M49.5861 34.9388C48.1428 35.2198 48.188 36.9526 49.5861 36.9526C50.3529 36.9526 50.6235 36.6717 50.7136 35.7818C50.7587 35.1262 50.7587 34.6578 50.6686 34.6578C50.6235 34.7046 50.1273 34.8452 49.5861 34.9388Z" fill="white"/>
<path d="M48.999 40.1374C48.999 42.3387 49.6755 42.807 50.0363 40.7931C50.1717 40.0438 50.0363 39.2476 49.6303 38.8262C49.0891 38.2641 48.999 38.4046 48.999 40.1374Z" fill="white"/>
<path d="M49.3155 45.3826C49.4508 45.8978 49.6312 46.3194 49.7214 46.3194C49.8117 46.3194 49.9018 45.8978 49.9018 45.3826C49.9018 44.8675 49.7214 44.446 49.496 44.446C49.2705 44.446 49.1802 44.8675 49.3155 45.3826Z" fill="white"/>
<path d="M79.2619 46.9283C79.0364 47.4903 78.6756 50.0193 78.405 52.5015C78.1344 54.9837 77.5932 57.6532 77.2323 58.4493C76.8265 59.1987 76.5108 60.0885 76.5108 60.3695C76.5108 60.6506 75.699 62.3366 74.7067 64.1162C72.6771 67.7224 72.5869 68.1439 73.6694 69.3615C74.391 70.2045 74.3008 70.345 71.8653 72.7336C70.4672 74.0918 68.2122 76.0119 66.9042 76.9486C64.4236 78.6346 63.7471 79.5712 64.1079 80.6485C64.3785 81.3509 58.7859 83.5521 55.8543 83.9267C54.7719 84.0673 53.7798 84.2546 53.6895 84.3951C53.5993 84.4888 53.6444 85.1913 53.7798 85.9875C54.0504 87.3456 54.0955 87.3924 56.125 87.1583C59.1016 86.8305 65.5963 84.2546 69.4298 81.8661C71.1888 80.7421 73.94 78.5409 75.5185 77.0422L78.3598 74.2791L77.3677 73.2019L76.3754 72.0779L78.2697 69.2211C80.1639 66.3643 81.4719 61.7745 80.5248 61.3999C79.9384 61.1657 80.0287 60.5569 80.7502 59.8076C81.4268 59.0582 81.7425 57.0443 82.1935 51.0028L82.5092 47.0219L81.066 46.46C79.7581 45.9448 79.5776 45.9916 79.2619 46.9283Z" fill="white"/>
<path d="M8.09222 47.6307C7.7765 47.818 7.5961 48.6142 7.68631 49.3635C7.7765 50.1597 8.00201 52.3609 8.18241 54.2811C8.49812 58.2619 9.85117 63.2263 11.4748 66.692C14.2711 72.6398 16.0751 75.3561 17.2477 75.3561C17.5183 75.3561 18.0595 74.8878 18.4204 74.3726C19.0067 73.3892 19.0969 73.436 21.1265 75.9182C24.4639 79.9927 34.0254 86.1747 37.7237 86.6899C39.3023 86.8772 39.3924 85.9405 37.8591 85.6127C36.2353 85.2848 31.4095 82.709 28.4779 80.6952C25.6366 78.7281 23.7424 76.9016 20.4499 72.8739C18.9616 71.1411 17.5183 69.7362 17.2026 69.7362C16.8419 69.7362 16.0751 69.0337 15.4888 68.1907C12.918 64.5844 10.8885 57.7936 10.3924 51.0964C10.0767 47.1624 9.67076 46.6004 8.09222 47.6307Z" fill="white"/>
<path d="M54.1408 48.2863C54.0056 48.5205 53.4644 48.661 52.9232 48.7078C52.0212 48.7547 52.0212 48.8015 53.0584 49.1293C53.6899 49.3167 54.9528 49.504 55.8998 49.5508C57.2529 49.5977 57.5685 49.4572 57.5685 48.7078C57.5685 47.9585 57.2979 47.818 55.9449 47.8648C55.0429 47.9117 54.2311 48.099 54.1408 48.2863Z" fill="white"/>
<path d="M58.9219 48.942C58.9219 50.0191 59.0572 50.1128 60.6357 49.9723C61.9888 49.8786 62.3496 49.6445 62.4398 48.7547C62.5752 47.818 62.3947 47.7242 60.7711 47.7242C59.1024 47.7242 58.9219 47.818 58.9219 48.942Z" fill="white"/>
<path d="M39.4377 50.394C38.4003 50.6749 38.4003 51.0497 39.5729 53.5317C40.5652 55.7329 41.6476 56.7633 43.7223 57.2785C45.2557 57.6531 45.3008 56.9975 43.8575 55.0304C43.3163 54.2342 42.5497 52.7825 42.1888 51.7989C41.6025 50.1129 41.1967 49.8788 39.4377 50.394Z" fill="white"/>
<path d="M42.2794 50.8154C42.2794 51.3306 42.4147 51.4711 42.55 51.0965C42.6853 50.7686 42.6402 50.3471 42.5048 50.2065C42.3696 50.0192 42.2342 50.3003 42.2794 50.8154Z" fill="white"/>
<path d="M37.7236 58.262C37.7236 58.6367 37.9041 58.9645 38.1747 58.9645C38.4002 58.9645 38.4904 58.6367 38.3551 58.262C38.1747 57.8874 37.9942 57.5596 37.9041 57.5596C37.8139 57.5596 37.7236 57.8874 37.7236 58.262Z" fill="white"/>
<path d="M21.3074 62.3366C22.7506 67.1135 29.2 74.2791 34.7024 77.2295C38.7615 79.3839 39.5282 79.5244 39.5282 78.0257C39.5282 77.2295 38.8517 76.6676 36.281 75.4031C31.5002 72.9677 28.4784 70.0641 24.1938 63.6947C22.525 61.2125 20.6759 60.3695 21.3074 62.3366Z" fill="white"/>
<path d="M82.9603 71.2347C79.9386 76.48 73.5793 82.5215 68.0318 85.4252C66.1376 86.4087 65.6865 86.877 65.6865 87.8136V88.9845L68.5279 87.4858C73.1733 84.9568 75.2029 83.3645 79.2169 79.1495C83.682 74.4662 86.1174 70.7663 85.4409 69.5955C84.8095 68.3777 84.4938 68.612 82.9603 71.2347Z" fill="white"/>
<path d="M85.892 71.2818C84.5389 74.1854 79.6228 80.0864 76.0599 82.9902C74.1205 84.5824 70.8282 86.8305 68.7535 87.9544C64.4689 90.343 64.5591 90.2493 64.8747 90.6239C65.3709 91.0923 72.3165 87.1114 75.9697 84.3015C77.9541 82.7091 80.6151 80.1801 81.878 78.6814C84.0879 76.0587 87.3352 70.9539 87.3352 70.1109C87.3352 69.2211 86.5233 69.8768 85.892 71.2818Z" fill="white"/>
<path d="M86.2983 76.7144C84.81 79.3371 79.2625 85.004 75.8348 87.3924C72.0463 90.062 66.589 92.9656 64.6947 93.3872C63.1614 93.715 63.0711 94.6516 64.4692 95.6351C65.4615 96.2908 65.7772 96.1971 69.7912 94.2302C75.4288 91.4669 78.7213 89.0784 82.9608 84.7697C86.2081 81.5382 90.4927 76.2929 90.4927 75.6372C90.4927 75.4967 89.726 75.3562 88.7788 75.3562C87.3807 75.3562 86.9296 75.5904 86.2983 76.7144Z" fill="white"/>
</svg>
